<?xml version="1.0" encoding="utf-8"?>
<!-- Generator: Adobe Illustrator 28.3.0, SVG Export Plug-In . SVG Version: 6.00 Build 0)  -->
<svg version="1.1" xmlns="http://www.w3.org/2000/svg" xmlns:xlink="http://www.w3.org/1999/xlink" x="0px" y="0px"
	 viewBox="0 0 595.28 595.28" style="enable-background:new 0 0 595.28 595.28;" xml:space="preserve">
<style type="text/css">
	.st0{fill:#414042;}
	.st1{fill:url(#SVGID_1_);}
	.st2{fill:url(#SVGID_00000155839858236649791250000011105536154779487622_);}
	.st3{fill:url(#SVGID_00000132807523158811140510000013573855585413128892_);}
	.st4{fill:url(#SVGID_00000072962738301998337090000005570499766810197941_);}
	.st5{fill:url(#SVGID_00000027599410707609944610000003415215131331891607_);}
	.st6{fill:url(#SVGID_00000016044036324207871200000017382326728842802617_);}
	.st7{font-family:'Montserrat-Light';}
	.st8{font-size:70px;}
	.st9{font-family:'Montserrat-Black';}
	.st10{font-size:30px;}
	.st11{display:none;}
	.st12{display:inline;}
	.st13{fill:#FFFFFF;}
	.st14{fill:url(#SVGID_00000096750984352414034700000009267141572114173093_);}
	.st15{fill:url(#SVGID_00000120517793799785875310000012074982230631875722_);}
	.st16{fill:url(#SVGID_00000026164235352569310350000010169335648456875161_);}
	.st17{fill:url(#SVGID_00000013909011223941731260000006501162866311105440_);}
	.st18{fill:url(#SVGID_00000137103399679549737770000007453512697821974684_);}
	.st19{fill:url(#SVGID_00000000926132570125978710000000406382072641894032_);}
	.st20{fill:url(#SVGID_00000121979148904961481970000006520981142565019574_);}
	.st21{fill:url(#SVGID_00000053536901007182696050000015466156912733005726_);}
</style>
<g id="Background">
	<rect x="737.01" width="595.28" height="595.28"/>
</g>
<g id="Logo">
</g>
<g id="Text">
	<text transform="matrix(1 0 0 1 -1178.6766 401.5876)" class="st0 st7 st8">NAME</text>
	<text transform="matrix(1 0 0 1 -1394.5067 401.5876)" class="st9 st8">LOGO</text>
	<text transform="matrix(1 0 0 1 -1329.682 447.468)" class="st7" style="fill:#6D6E71; font-size:36px;">BRANDING-TEXT</text>
	<g>
		<path class="st0" d="M-1128.77,278.17c4.06,8.79,10.16,19.29,24.71,19.29h32.14l-36.08-75.04c-14.87,5.59-28.01,11.88-38.87,18.57
			C-1143.22,248.36-1132.15,270.85-1128.77,278.17z"/>
		<linearGradient id="SVGID_1_" gradientUnits="userSpaceOnUse" x1="-1228.6007" y1="228.1734" x2="-1199.5547" y2="296.4723">
			<stop  offset="0" style="stop-color:#3B4E98"/>
			<stop  offset="0.3258" style="stop-color:#0079BA"/>
			<stop  offset="0.641" style="stop-color:#00A2DF"/>
			<stop  offset="0.7853" style="stop-color:#00B6F1"/>
		</linearGradient>
		<path class="st1" d="M-1230.11,279.12c4.06,8.8,10.15,19.29,24.7,19.29h32.15l-36.08-75.04c-14.86,5.59-28,11.88-38.87,18.57
			C-1244.57,249.31-1233.49,271.8-1230.11,279.12z"/>
		
			<linearGradient id="SVGID_00000098200599901390099210000009650341836032610700_" gradientUnits="userSpaceOnUse" x1="-1201.8987" y1="243.1986" x2="-1023.0341" y2="243.1986">
			<stop  offset="0" style="stop-color:#004B8C"/>
			<stop  offset="0.0772" style="stop-color:#224B8D"/>
			<stop  offset="0.4312" style="stop-color:#90418E"/>
			<stop  offset="0.6741" style="stop-color:#CE258B"/>
			<stop  offset="0.7853" style="stop-color:#EC008C"/>
		</linearGradient>
		<path style="fill:url(#SVGID_00000098200599901390099210000009650341836032610700_);" d="M-1106.77,207.43
			c-39.08,6.5-73.08,18.21-95.13,31.43l21.68,45.06c-2.72-30.72,59.64-66.09,141.27-79.65c2.55-0.43,5.1-0.82,7.63-1.19
			C-1053.11,201.55-1079.16,202.85-1106.77,207.43z M-1029.63,202.89l-4.28,6.21l10.88-6.52L-1029.63,202.89z"/>
		
			<linearGradient id="SVGID_00000046300860354402971990000013461631763640883891_" gradientUnits="userSpaceOnUse" x1="-1329.7217" y1="254.5282" x2="-1209.4764" y2="254.5282">
			<stop  offset="0" style="stop-color:#9ACA3C"/>
			<stop  offset="0.1799" style="stop-color:#73C058"/>
			<stop  offset="0.594" style="stop-color:#00AE8D"/>
			<stop  offset="0.7853" style="stop-color:#00A99D"/>
		</linearGradient>
		<path style="fill:url(#SVGID_00000046300860354402971990000013461631763640883891_);" d="M-1329.52,273.26
			c2.3,13.85,23.52,23,54.68,26c-3.53-3.84-5.81-8.09-6.58-12.72c-3.6-21.6,25.8-45.75,71.93-63.13l-6.53-13.62
			C-1283.13,222.36-1333.35,250.13-1329.52,273.26z"/>
		<g>
			<path class="st0" d="M-1249.73,139.37l-35.11,73.15c-13.12,6-23.8,13.22-31.06,20.97c22.05-12.28,54.37-23.05,91.21-29.16
				c1.92-0.32,3.78-0.56,5.68-0.85l-3.17-6.61L-1249.73,139.37z"/>
			<path class="st0" d="M-1121.36,194.59l-27.03-56.18l-31.1,64.82c-0.05,0.01-0.08,0.02-0.13,0.03l-8.63,18.06
				c16.34-6.38,34.34-11.76,53.48-15.74c5.02-1.04,9.99-1.92,14.94-2.73c14.17-2.22,27.85-3.56,40.76-4.1
				c7.91-0.28,15.62-0.28,23,0.07C-1074.76,194.65-1097.09,193.15-1121.36,194.59z"/>
			<polygon class="st0" points="-1036.58,198.65 -1029.63,202.89 -1023.03,202.58 			"/>
		</g>
	</g>
	<text transform="matrix(1 0 0 1 -427.6766 401.5876)" class="st0 st7 st8">NAME</text>
	<text transform="matrix(1 0 0 1 -643.5067 401.5876)" class="st9 st8">LOGO</text>
	<text transform="matrix(1 0 0 1 -578.682 447.468)" class="st7" style="fill:#6D6E71; font-size:36px;">BRANDING-TEXT</text>
	<g>
		<path class="st0" d="M-373.68,281.45c4.25,9.2,10.62,20.18,25.85,20.18h33.63l-37.75-78.5c-15.56,5.85-29.3,12.43-40.66,19.43
			C-388.8,250.27-377.22,273.79-373.68,281.45z"/>
		
			<linearGradient id="SVGID_00000134970267809765168940000007933804759073144472_" gradientUnits="userSpaceOnUse" x1="-478.1204" y1="229.1496" x2="-447.7345" y2="300.5991">
			<stop  offset="0" style="stop-color:#7B1171"/>
			<stop  offset="1" style="stop-color:#EC008C"/>
		</linearGradient>
		<path style="fill:url(#SVGID_00000134970267809765168940000007933804759073144472_);" d="M-479.7,282.45
			c4.25,9.2,10.62,20.18,25.84,20.18h33.63l-37.75-78.5c-15.55,5.85-29.3,12.43-40.66,19.43
			C-494.83,251.26-483.24,274.79-479.7,282.45z"/>
		
			<linearGradient id="SVGID_00000169539997914527256380000016825820265767680912_" gradientUnits="userSpaceOnUse" x1="-450.1865" y1="244.8678" x2="-263.0713" y2="244.8678">
			<stop  offset="0" style="stop-color:#7B1171"/>
			<stop  offset="1" style="stop-color:#EC008C"/>
		</linearGradient>
		<path style="fill:url(#SVGID_00000169539997914527256380000016825820265767680912_);" d="M-269.98,202.7l-4.48,6.49l11.38-6.82
			L-269.98,202.7z M-350.67,207.45c-40.88,6.8-76.45,19.05-99.52,32.88l22.68,47.14c-2.85-32.14,62.39-69.14,147.78-83.33
			c2.67-0.44,5.33-0.86,7.98-1.25C-294.53,201.3-321.79,202.66-350.67,207.45z"/>
		<path d="M-269.98,202.7"/>
		<path d="M-263.07,202.38"/>
		
			<linearGradient id="SVGID_00000114783788688372953710000006177481079145590685_" gradientUnits="userSpaceOnUse" x1="-583.9064" y1="256.72" x2="-458.1138" y2="256.72">
			<stop  offset="0" style="stop-color:#FFC20E"/>
			<stop  offset="1" style="stop-color:#ED145B"/>
		</linearGradient>
		<path style="fill:url(#SVGID_00000114783788688372953710000006177481079145590685_);" d="M-583.69,276.32
			c2.41,14.49,24.61,24.06,57.21,27.2c-3.7-4.02-6.07-8.46-6.88-13.31c-3.76-22.59,26.99-47.86,75.25-66.04l-6.83-14.25
			C-535.16,223.07-587.71,252.12-583.69,276.32z"/>
		<g>
			<path class="st0" d="M-500.23,136.25l-36.73,76.53c-13.72,6.27-24.9,13.83-32.5,21.94c23.07-12.85,56.88-24.11,95.41-30.51
				c2-0.33,3.95-0.59,5.94-0.89l-3.32-6.92L-500.23,136.25z"/>
			<path class="st0" d="M-365.93,194.02l-28.28-58.77l-32.53,67.81c-0.05,0.01-0.09,0.02-0.14,0.03l-9.03,18.89
				c17.09-6.67,35.92-12.3,55.95-16.46c5.25-1.09,10.46-2.01,15.63-2.85c14.82-2.32,29.14-3.72,42.63-4.29
				c8.28-0.3,16.34-0.29,24.06,0.07C-317.18,194.08-340.54,192.51-365.93,194.02z"/>
			<polygon class="st0" points="-277.24,198.27 -269.98,202.7 -263.07,202.38 			"/>
		</g>
	</g>
	<text transform="matrix(1 0 0 1 405.3629 401.5876)" class="st7 st8">AI</text>
	<text transform="matrix(1 0 0 1 133.3293 401.5876)" class="st9 st8">ZINNIA</text>
	<text transform="matrix(1 0 0 1 102.6994 447.468)" class="st7 st10">SOFTWARE ENGINEERING</text>
	<g class="st11">
		<path class="st12" d="M355.32,281.45c4.25,9.2,10.62,20.18,25.85,20.18h33.63l-37.75-78.5c-15.56,5.85-29.3,12.43-40.66,19.43
			C340.2,250.27,351.78,273.79,355.32,281.45z"/>
		<path class="st12" d="M249.3,282.45c4.25,9.2,10.62,20.18,25.84,20.18h33.63l-37.75-78.5c-15.55,5.85-29.3,12.43-40.66,19.43
			C234.17,251.26,245.76,274.79,249.3,282.45z"/>
		<path class="st12" d="M459.02,202.7l-4.48,6.49l11.38-6.82L459.02,202.7z M378.33,207.45c-40.88,6.8-76.45,19.05-99.52,32.88
			l22.68,47.14c-2.85-32.14,62.39-69.14,147.78-83.33c2.67-0.44,5.33-0.86,7.98-1.25C434.47,201.3,407.21,202.66,378.33,207.45z"/>
		<path class="st12" d="M459.02,202.7"/>
		<path class="st12" d="M465.93,202.38"/>
		<path class="st12" d="M145.31,276.32c2.41,14.49,24.61,24.06,57.21,27.2c-3.7-4.02-6.07-8.46-6.88-13.31
			c-3.76-22.59,26.99-47.86,75.25-66.04l-6.83-14.25C193.84,223.07,141.29,252.12,145.31,276.32z"/>
		<g class="st12">
			<path d="M228.77,136.25l-36.73,76.53c-13.72,6.27-24.9,13.83-32.5,21.94c23.07-12.85,56.88-24.11,95.41-30.51
				c2-0.33,3.95-0.59,5.94-0.89l-3.32-6.92L228.77,136.25z"/>
			<path d="M363.07,194.02l-28.28-58.77l-32.53,67.81c-0.05,0.01-0.09,0.02-0.14,0.03l-9.03,18.89
				c17.09-6.67,35.92-12.3,55.95-16.46c5.25-1.09,10.46-2.01,15.63-2.85c14.82-2.32,29.14-3.72,42.63-4.29
				c8.28-0.3,16.34-0.29,24.06,0.07C411.82,194.08,388.46,192.51,363.07,194.02z"/>
			<polygon points="451.76,198.27 459.02,202.7 465.93,202.38 			"/>
		</g>
	</g>
	<text transform="matrix(1 0 0 1 1038.3234 401.5876)" class="st13 st7 st8">NAME</text>
	<text transform="matrix(1 0 0 1 822.4933 401.5876)" class="st13 st9 st8">LOGO</text>
	<text transform="matrix(1 0 0 1 887.318 447.468)" class="st13 st7" style="font-size:36px;">BRANDING-TEXT</text>
	<g>
		<path class="st13" d="M1092.32,281.45c4.25,9.2,10.62,20.18,25.85,20.18h33.63l-37.75-78.5c-15.56,5.85-29.3,12.43-40.66,19.43
			C1077.2,250.27,1088.78,273.79,1092.32,281.45z"/>
		<path class="st13" d="M986.3,282.45c4.25,9.2,10.62,20.18,25.84,20.18h33.63l-37.75-78.5c-15.55,5.85-29.3,12.43-40.66,19.43
			C971.17,251.26,982.76,274.79,986.3,282.45z"/>
		<path class="st13" d="M1196.02,202.7l-4.48,6.49l11.38-6.82L1196.02,202.7z M1115.33,207.45c-40.88,6.8-76.45,19.05-99.52,32.88
			l22.68,47.14c-2.85-32.14,62.39-69.14,147.78-83.33c2.67-0.44,5.33-0.86,7.98-1.25C1171.47,201.3,1144.21,202.66,1115.33,207.45z"
			/>
		<path class="st13" d="M1196.02,202.7"/>
		<path class="st13" d="M1202.93,202.38"/>
		<path class="st13" d="M882.31,276.32c2.41,14.49,24.61,24.06,57.21,27.2c-3.7-4.02-6.07-8.46-6.88-13.31
			c-3.76-22.59,26.99-47.86,75.25-66.04l-6.83-14.25C930.84,223.07,878.29,252.12,882.31,276.32z"/>
		<g>
			<path class="st13" d="M965.77,136.25l-36.73,76.53c-13.72,6.27-24.9,13.83-32.5,21.94c23.07-12.85,56.88-24.11,95.41-30.51
				c2-0.33,3.95-0.59,5.94-0.89l-3.32-6.92L965.77,136.25z"/>
			<path class="st13" d="M1100.07,194.02l-28.28-58.77l-32.53,67.81c-0.05,0.01-0.09,0.02-0.14,0.03l-9.03,18.89
				c17.09-6.67,35.92-12.3,55.95-16.46c5.25-1.09,10.46-2.01,15.63-2.85c14.82-2.32,29.14-3.72,42.63-4.29
				c8.28-0.3,16.34-0.29,24.06,0.07C1148.82,194.08,1125.46,192.51,1100.07,194.02z"/>
			<polygon class="st13" points="1188.76,198.27 1196.02,202.7 1202.93,202.38 			"/>
		</g>
	</g>
	<g>
		<path class="st0" d="M448.94,269.57c-0.91-22.69,0.14-31.53-1.32-42.42c-0.71-5.31-9.85-3.18-14.75-1.02l-27.11,11.96l1.17,55.77
			c0.18,8.84,7.34,15.95,16.18,16.07c10.5,0.13,17.54-0.04,26.44-1.16C449.53,304.94,449.71,288.93,448.94,269.57z"/>
		
			<linearGradient id="SVGID_00000162325651032490010650000006183949192580354235_" gradientUnits="userSpaceOnUse" x1="349.6537" y1="239.1878" x2="379.6309" y2="309.6762">
			<stop  offset="0" style="stop-color:#EED7BA"/>
			<stop  offset="1" style="stop-color:#E76E70"/>
		</linearGradient>
		<path style="fill:url(#SVGID_00000162325651032490010650000006183949192580354235_);" d="M346.6,291.79
			c4.25,9.2,10.62,20.18,25.84,20.18h33.63l-34.75-78.5c-15.55,5.85-29.3,12.43-40.66,19.43
			C334.47,260.61,343.06,284.14,346.6,291.79z"/>
		
			<linearGradient id="SVGID_00000044866978113712416700000001108696562094213516_" gradientUnits="userSpaceOnUse" x1="381.1146" y1="254.2134" x2="521.2297" y2="254.2134">
			<stop  offset="0.1397" style="stop-color:#EED7BA"/>
			<stop  offset="0.3883" style="stop-color:#E77473"/>
			<stop  offset="1" style="stop-color:#E76E70"/>
		</linearGradient>
		<path style="fill:url(#SVGID_00000044866978113712416700000001108696562094213516_);" d="M514.33,212.04l-4.48,6.49l11.38-6.82
			L514.33,212.04z M433.63,216.8c-40.88,6.8-29.45,19.05-52.52,32.88l19.68,47.14c-2.73-30.83,26.27-70.45,103.78-83.33
			c2.67-0.44,5.33-0.86,7.98-1.25C489.77,210.65,462.51,212,433.63,216.8z"/>
		<path d="M514.33,212.04"/>
		<path d="M521.23,211.72"/>
		
			<linearGradient id="SVGID_00000041259157674793954880000014791203017695869838_" gradientUnits="userSpaceOnUse" x1="247.3946" y1="266.0656" x2="373.1873" y2="266.0656">
			<stop  offset="0" style="stop-color:#E77164"/>
			<stop  offset="0.4045" style="stop-color:#EE355A"/>
			<stop  offset="0.5602" style="stop-color:#EE315A"/>
			<stop  offset="1" style="stop-color:#D15055"/>
		</linearGradient>
		<path style="fill:url(#SVGID_00000041259157674793954880000014791203017695869838_);" d="M247.61,285.66
			c2.41,14.49,21.61,24.06,54.21,27.2c-3.7-4.02-6.07-8.46-6.88-13.31c-3.76-22.59,29.99-47.86,78.25-66.04l-6.83-14.25
			C296.14,232.42,243.6,261.47,247.61,285.66z"/>
		<g>
			<path class="st0" d="M328.07,145.6l-33.73,76.53c-13.72,6.27-24.9,13.83-32.5,21.94c23.07-12.85,56.88-24.11,95.41-30.51
				c2-0.33,3.95-0.59,5.94-0.89l-3.32-6.92L328.07,145.6z"/>
			<path class="st0" d="M497.73,205.78c-1.1,0.24-56.23-0.29-68.54,4.62l-13.97,4.45c-6.33,2.18-28.27,16.97-26.83,15.62
				c4.56-4.28,16.96-18.64,21.95-20.49c6.34-2.36,33.88-8.37,33.88-8.37"/>
			<path class="st0" d="M448.36,194.84"/>
			<path class="st0" d="M478.87,199.35"/>
			<path class="st0" d="M469.1,195.99"/>
			<polygon class="st0" points="507.06,207.61 514.33,212.04 521.23,211.72 			"/>
		</g>
	</g>
	<path class="st0" d="M408.9,209.83c14.46,1.48,1.78,0.22,3.93,0l35.1-5.74l-1.34-45.89c-10.47,7.7-25.65,5.88-40.83,6.84
		C405.76,188.97,402.03,209.13,408.9,209.83z"/>
	<path class="st0" d="M450,137.58c-4.22,15.03-5.96,20.54-20.36,22.36l-23.55,2.16l1.16-23.42c12.62-10.53,24.49-21.03,34.39-20.55
		C450.49,116.83,452.25,129.56,450,137.58z"/>
	<path class="st0" d="M179.99,179.84c27-1.41,34.69,0.46,30.98-12.85l-0.89-19.31l-64.46,1.04c0.22,11.68-0.96,22.46,1.19,31.8
		C153.4,180.35,173.52,180.18,179.99,179.84z"/>
	<path class="st0" d="M224.46,192.76c-0.11-0.25-0.21-0.51-0.29-0.77l-14.15-43.3l-16.43,69.04c-2.59,20.3-32.82,32.81-32.83,32.83
		c-8.65,10.44-11.96,22.9-19.55,30.99c43.2-20.24,69.61-28.93,103.77-30.34"/>
	
		<linearGradient id="SVGID_00000050622349897477355370000017196291645403986841_" gradientUnits="userSpaceOnUse" x1="212.1891" y1="310.9991" x2="212.1891" y2="310.9991">
		<stop  offset="0" style="stop-color:#7B1171"/>
		<stop  offset="1" style="stop-color:#EC008C"/>
	</linearGradient>
	<path style="fill:url(#SVGID_00000050622349897477355370000017196291645403986841_);" d="M212.19,311"/>
	
		<linearGradient id="SVGID_00000161615868449888993910000001404089773860420030_" gradientUnits="userSpaceOnUse" x1="193.0964" y1="309.9601" x2="193.0964" y2="309.9601">
		<stop  offset="0" style="stop-color:#7B1171"/>
		<stop  offset="1" style="stop-color:#EC008C"/>
	</linearGradient>
	<path style="fill:url(#SVGID_00000161615868449888993910000001404089773860420030_);" d="M193.1,309.96"/>
	
		<linearGradient id="SVGID_00000137096083903667631460000000490094413132253579_" gradientUnits="userSpaceOnUse" x1="166.6647" y1="311.9698" x2="166.6647" y2="311.9698">
		<stop  offset="0" style="stop-color:#7B1171"/>
		<stop  offset="1" style="stop-color:#EC008C"/>
	</linearGradient>
	<path style="fill:url(#SVGID_00000137096083903667631460000000490094413132253579_);" d="M166.66,311.97"/>
	
		<linearGradient id="SVGID_00000083086505420703868940000009475301536627195815_" gradientUnits="userSpaceOnUse" x1="222.2152" y1="258.6201" x2="244.0041" y2="309.8544">
		<stop  offset="0" style="stop-color:#EED7BA"/>
		<stop  offset="1" style="stop-color:#E76E70"/>
	</linearGradient>
	<path style="fill:url(#SVGID_00000083086505420703868940000009475301536627195815_);" d="M213.12,294.73
		c5.84,8.22,10.13,14.25,20.09,15.23l36.96-1.39l-25.08-52.02c0,0-20.22,3.66-34.91,9.52C200.17,272.72,203,280.5,213.12,294.73z"/>
	
		<linearGradient id="SVGID_00000049190395383518149710000013188675433869633694_" gradientUnits="userSpaceOnUse" x1="143.6998" y1="286.8738" x2="255.9778" y2="286.8738">
		<stop  offset="0.4413" style="stop-color:#E77164"/>
		<stop  offset="0.5587" style="stop-color:#ED145B"/>
	</linearGradient>
	<path style="fill:url(#SVGID_00000049190395383518149710000013188675433869633694_);" d="M254.25,271.38
		c-2.59-4.75-3.26-10.99-6.53-14.36l-10.66,1.18l-14.96,3.6l-18.46,7.5c-0.21,0.05,0.2-0.07,0,0c-2.55,0.96-14.64,4.67-36.44,12.59
		c-14.11,5.13-1.98,0.92-16.3,7.51c-16.13,7.42-11.6,21.27,23.29,25.86c4.32,0.57,27.36,2.99,24.19,0
		c-22.46-21.17-0.26-28.49,15.52-33.28"/>
</g>
</svg>
