<?xml version="1.0" encoding="UTF-8"?>
<svg xmlns="http://www.w3.org/2000/svg" version="1.1" xmlns:xlink="http://www.w3.org/1999/xlink" viewBox="0 0 595.28 595.28">
  <defs>
    <style>
      .cls-1 {
        fill: url(#linear-gradient-12);
      }

      .cls-1, .cls-2, .cls-3, .cls-4, .cls-5, .cls-6, .cls-7, .cls-8, .cls-9, .cls-10, .cls-11, .cls-12, .cls-13, .cls-14, .cls-15, .cls-16, .cls-17, .cls-18, .cls-19, .cls-20, .cls-21, .cls-22 {
        stroke-width: 0px;
      }

      .cls-2 {
        fill: url(#linear-gradient-17);
      }

      .cls-3 {
        fill: url(#linear-gradient);
      }

      .cls-4 {
        fill: #000;
      }

      .cls-5, .cls-23, .cls-24, .cls-25 {
        fill: #231f20;
      }

      .cls-6 {
        fill: url(#linear-gradient-6);
      }

      .cls-7 {
        fill: #414042;
      }

      .cls-23 {
        font-size: 48px;
      }

      .cls-23, .cls-26, .cls-25 {
        font-family: Montserrat-Black, Montserrat;
        font-weight: 800;
      }

      .cls-8 {
        fill: url(#linear-gradient-15);
      }

      .cls-9 {
        fill: url(#linear-gradient-11);
      }

      .cls-10 {
        fill: url(#linear-gradient-5);
      }

      .cls-27, .cls-26, .cls-28, .cls-20 {
        fill: #fff;
      }

      .cls-27, .cls-26, .cls-25 {
        font-size: 70px;
      }

      .cls-27, .cls-24, .cls-28 {
        font-family: Montserrat-Light, Montserrat;
        font-weight: 300;
      }

      .cls-11 {
        fill: url(#linear-gradient-13);
      }

      .cls-12 {
        fill: url(#linear-gradient-16);
      }

      .cls-13 {
        fill: url(#linear-gradient-14);
      }

      .cls-14 {
        fill: url(#linear-gradient-2);
      }

      .cls-15 {
        fill: url(#linear-gradient-7);
      }

      .cls-24 {
        font-size: 30px;
      }

      .cls-28 {
        font-size: 36px;
      }

      .cls-16 {
        fill: url(#linear-gradient-3);
      }

      .cls-17 {
        fill: url(#linear-gradient-9);
      }

      .cls-18 {
        fill: url(#linear-gradient-8);
      }

      .cls-19 {
        fill: url(#linear-gradient-18);
      }

      .cls-29 {
        display: none;
      }

      .cls-21 {
        fill: url(#linear-gradient-10);
      }

      .cls-22 {
        fill: url(#linear-gradient-4);
      }

      .cls-30 {
        fill: none;
        stroke: #000;
        stroke-miterlimit: 10;
        stroke-width: 3px;
      }
    </style>
    <linearGradient id="linear-gradient" x1="1859.67" y1="289.19" x2="1889.65" y2="359.68" gradientUnits="userSpaceOnUse">
      <stop offset="0" stop-color="#eed7ba"/>
      <stop offset="1" stop-color="#e76e70"/>
    </linearGradient>
    <linearGradient id="linear-gradient-2" x1="1891.13" y1="304.21" x2="2031.25" y2="304.21" gradientUnits="userSpaceOnUse">
      <stop offset=".14" stop-color="#eed7ba"/>
      <stop offset=".39" stop-color="#e77473"/>
      <stop offset="1" stop-color="#e76e70"/>
    </linearGradient>
    <linearGradient id="linear-gradient-3" x1="1757.41" y1="316.07" x2="1883.2" y2="316.07" gradientUnits="userSpaceOnUse">
      <stop offset=".53" stop-color="#e77164"/>
      <stop offset=".78" stop-color="#ee355a"/>
      <stop offset=".91" stop-color="#ee315a"/>
      <stop offset="1" stop-color="#d15055"/>
    </linearGradient>
    <linearGradient id="linear-gradient-4" x1="1722.2" y1="361" x2="1722.2" y2="361" gradientUnits="userSpaceOnUse">
      <stop offset="0" stop-color="#7b1171"/>
      <stop offset="1" stop-color="#ec008c"/>
    </linearGradient>
    <linearGradient id="linear-gradient-5" x1="1703.11" y1="359.96" x2="1703.11" y2="359.96" xlink:href="#linear-gradient-4"/>
    <linearGradient id="linear-gradient-6" x1="1676.68" y1="361.97" x2="1676.68" y2="361.97" xlink:href="#linear-gradient-4"/>
    <linearGradient id="linear-gradient-7" x1="1014.64" y1="308.66" x2="1044.61" y2="379.15" xlink:href="#linear-gradient"/>
    <linearGradient id="linear-gradient-8" x1="1046.1" y1="323.68" x2="1186.21" y2="323.68" xlink:href="#linear-gradient-2"/>
    <linearGradient id="linear-gradient-9" x1="912.38" y1="335.54" x2="1038.17" y2="335.54" xlink:href="#linear-gradient-3"/>
    <linearGradient id="linear-gradient-10" x1="877.17" y1="380.47" x2="877.17" y2="380.47" xlink:href="#linear-gradient-4"/>
    <linearGradient id="linear-gradient-11" x1="858.08" y1="379.43" x2="858.08" y2="379.43" xlink:href="#linear-gradient-4"/>
    <linearGradient id="linear-gradient-12" x1="823.65" y1="384.44" x2="823.65" y2="384.44" xlink:href="#linear-gradient-4"/>
    <linearGradient id="linear-gradient-13" x1="278.36" y1="302.14" x2="308.33" y2="372.63" xlink:href="#linear-gradient"/>
    <linearGradient id="linear-gradient-14" x1="309.82" y1="317.16" x2="449.93" y2="317.16" xlink:href="#linear-gradient-2"/>
    <linearGradient id="linear-gradient-15" x1="176.1" y1="329.02" x2="301.89" y2="329.02" xlink:href="#linear-gradient-3"/>
    <linearGradient id="linear-gradient-16" x1="140.89" y1="373.95" x2="140.89" y2="373.95" xlink:href="#linear-gradient-4"/>
    <linearGradient id="linear-gradient-17" x1="121.8" y1="372.91" x2="121.8" y2="372.91" xlink:href="#linear-gradient-4"/>
    <linearGradient id="linear-gradient-18" x1="87.37" y1="377.92" x2="87.37" y2="377.92" xlink:href="#linear-gradient-4"/>
  </defs>
  <g id="Background">
    <rect class="cls-5" x="2211.02" width="595.28" height="595.28"/>
  </g>
  <g id="Text">
    <text class="cls-25" transform="translate(1530.16 262.04)"><tspan x="0" y="0">ZINNIA</tspan></text>
    <text class="cls-24" transform="translate(1532.4 323.72)"><tspan x="0" y="0">SOFTWARE </tspan><tspan x="0" y="36">ENGINEERING</tspan></text>
    <g class="cls-29">
      <path class="cls-5" d="M1829.33,281.45c4.25,9.2,10.62,20.18,25.85,20.18h33.63l-37.75-78.5c-15.56,5.85-29.3,12.43-40.66,19.43,3.81,7.71,15.4,31.24,18.93,38.89Z"/>
      <path class="cls-5" d="M1723.31,282.45c4.25,9.2,10.62,20.18,25.84,20.18h33.63l-37.75-78.5c-15.55,5.85-29.3,12.43-40.66,19.43,3.81,7.71,15.4,31.23,18.94,38.89Z"/>
      <path class="cls-5" d="M1933.04,202.7l-4.48,6.49,11.38-6.82-6.9.32ZM1852.34,207.45c-40.88,6.8-76.45,19.05-99.52,32.88l22.68,47.14c-2.85-32.14,62.39-69.14,147.78-83.33,2.67-.44,5.33-.86,7.98-1.25-22.79-1.6-50.04-.24-78.93,4.56Z"/>
      <path class="cls-5" d="M1933.04,202.7"/>
      <path class="cls-5" d="M1939.94,202.38"/>
      <path class="cls-5" d="M1619.32,276.32c2.41,14.49,24.61,24.06,57.21,27.2-3.7-4.02-6.07-8.46-6.88-13.31-3.76-22.59,26.99-47.86,75.25-66.04l-6.83-14.25c-70.22,13.15-122.76,42.2-118.75,66.39Z"/>
      <g>
        <path class="cls-5" d="M1702.79,136.25l-36.73,76.53c-13.72,6.27-24.9,13.83-32.5,21.94,23.07-12.85,56.88-24.11,95.41-30.51,2-.33,3.95-.59,5.94-.89l-3.32-6.92-28.81-60.15Z"/>
        <path class="cls-5" d="M1837.08,194.02l-28.28-58.77-32.53,67.81s-.09.02-.14.03l-9.03,18.89c17.09-6.67,35.92-12.3,55.95-16.46,5.25-1.09,10.46-2.01,15.63-2.85,14.82-2.32,29.14-3.72,42.63-4.29,8.28-.3,16.34-.29,24.06.07-19.55-4.36-42.91-5.94-68.3-4.42Z"/>
        <polygon class="cls-5" points="1925.77 198.27 1933.04 202.7 1939.94 202.38 1925.77 198.27"/>
      </g>
    </g>
    <text class="cls-27" transform="translate(2512.34 401.59)"><tspan x="0" y="0">NAME</tspan></text>
    <text class="cls-26" transform="translate(2296.51 401.59)"><tspan x="0" y="0">LOGO</tspan></text>
    <text class="cls-28" transform="translate(2361.33 447.47)"><tspan x="0" y="0">BRANDING-TEXT</tspan></text>
    <g>
      <path class="cls-20" d="M2566.33,281.45c4.25,9.2,10.62,20.18,25.85,20.18h33.63l-37.75-78.5c-15.56,5.85-29.3,12.43-40.66,19.43,3.81,7.71,15.4,31.24,18.93,38.89Z"/>
      <path class="cls-20" d="M2460.31,282.45c4.25,9.2,10.62,20.18,25.84,20.18h33.63l-37.75-78.5c-15.55,5.85-29.3,12.43-40.66,19.43,3.81,7.71,15.4,31.23,18.94,38.89Z"/>
      <path class="cls-20" d="M2670.04,202.7l-4.48,6.49,11.38-6.82-6.9.32ZM2589.34,207.45c-40.88,6.8-76.45,19.05-99.52,32.88l22.68,47.14c-2.85-32.14,62.39-69.14,147.78-83.33,2.67-.44,5.33-.86,7.98-1.25-22.79-1.6-50.04-.24-78.93,4.56Z"/>
      <path class="cls-20" d="M2670.04,202.7"/>
      <path class="cls-20" d="M2676.94,202.38"/>
      <path class="cls-20" d="M2356.32,276.32c2.41,14.49,24.61,24.06,57.21,27.2-3.7-4.02-6.07-8.46-6.88-13.31-3.76-22.59,26.99-47.86,75.25-66.04l-6.83-14.25c-70.22,13.15-122.76,42.2-118.75,66.39Z"/>
      <g>
        <path class="cls-20" d="M2439.79,136.25l-36.73,76.53c-13.72,6.27-24.9,13.83-32.5,21.94,23.07-12.85,56.88-24.11,95.41-30.51,2-.33,3.95-.59,5.94-.89l-3.32-6.92-28.81-60.15Z"/>
        <path class="cls-20" d="M2574.08,194.02l-28.28-58.77-32.53,67.81s-.09.02-.14.03l-9.03,18.89c17.09-6.67,35.92-12.3,55.95-16.46,5.25-1.09,10.46-2.01,15.63-2.85,14.82-2.32,29.14-3.72,42.63-4.29,8.28-.3,16.34-.29,24.06.07-19.55-4.36-42.91-5.94-68.3-4.42Z"/>
        <polygon class="cls-20" points="2662.77 198.27 2670.04 202.7 2676.94 202.38 2662.77 198.27"/>
      </g>
    </g>
    <g>
      <path class="cls-7" d="M1958.95,319.57c-.91-22.69.14-31.53-1.32-42.42-.71-5.31-9.85-3.18-14.75-1.02l-27.11,11.96,1.17,55.77c.18,8.84,7.34,15.95,16.18,16.07,10.5.13,17.54-.04,26.44-1.16-.02-3.82.17-19.83-.61-39.19Z"/>
      <path class="cls-3" d="M1856.61,341.79c4.25,9.2,10.62,20.18,25.84,20.18h33.63l-34.75-78.5c-15.55,5.85-29.3,12.43-40.66,19.43,3.81,7.71,12.4,31.23,15.94,38.89Z"/>
      <path class="cls-14" d="M2024.34,262.04l-4.48,6.49,11.38-6.82-6.9.32ZM1943.65,266.8c-40.88,6.8-29.45,19.05-52.52,32.88l19.68,47.14c-2.73-30.83,26.27-70.45,103.78-83.33,2.67-.44,5.33-.86,7.98-1.25-22.79-1.6-50.04-.24-78.93,4.56Z"/>
      <path class="cls-4" d="M2024.34,262.04"/>
      <path class="cls-4" d="M2031.25,261.72"/>
      <path class="cls-16" d="M1757.63,335.66c2.41,14.49,21.61,24.06,54.21,27.2-3.7-4.02-6.07-8.46-6.88-13.31-3.76-22.59,29.99-47.86,78.25-66.04l-6.83-14.25c-70.22,13.15-122.76,42.2-118.75,66.39Z"/>
      <g>
        <path class="cls-7" d="M1838.09,195.6l-33.73,76.53c-13.72,6.27-24.9,13.83-32.5,21.94,23.07-12.85,56.88-24.11,95.41-30.51,2-.33,3.95-.59,5.94-.89l-3.32-6.92-31.81-60.15Z"/>
        <path class="cls-7" d="M2007.75,255.78c-1.1.24-56.23-.29-68.54,4.62l-13.97,4.45c-6.33,2.18-28.27,16.97-26.83,15.62,4.56-4.28,16.96-18.64,21.95-20.49,6.34-2.36,33.88-8.37,33.88-8.37"/>
        <path class="cls-7" d="M1958.38,244.84"/>
        <path class="cls-7" d="M1988.89,249.35"/>
        <path class="cls-7" d="M1979.11,245.99"/>
        <polygon class="cls-7" points="2017.07 257.61 2024.34 262.04 2031.25 261.72 2017.07 257.61"/>
      </g>
    </g>
    <path class="cls-7" d="M1918.92,259.83c14.46,1.48,1.78.22,3.93,0l35.1-5.74-1.34-45.89c-10.47,7.7-25.65,5.88-40.83,6.84,0,23.94-3.74,44.09,3.14,44.8Z"/>
    <path class="cls-7" d="M1960.01,187.58c-4.22,15.03-5.96,20.54-20.36,22.36l-23.55,2.16,1.16-23.42c12.62-10.53,24.49-21.03,34.39-20.55,8.86-1.3,10.61,11.42,8.36,19.45Z"/>
    <path class="cls-22" d="M1722.2,361"/>
    <path class="cls-10" d="M1703.11,359.96"/>
    <path class="cls-6" d="M1676.68,361.97"/>
    <text/>
    <text class="cls-23" transform="translate(940.95 176.56)"><tspan x="0" y="0">ZINNIA</tspan></text>
    <g>
      <path class="cls-5" d="M966.72,421.81l.55-.91c1.15,1.2,3.29,2.11,5.54,2.11,3.36,0,4.85-1.46,4.85-3.29,0-5.04-10.49-2.02-10.49-8.21,0-2.38,1.82-4.46,5.95-4.46,1.85,0,3.77.58,5.06,1.51l-.46.98c-1.39-.96-3.1-1.42-4.61-1.42-3.26,0-4.73,1.51-4.73,3.36,0,5.04,10.49,2.06,10.49,8.16,0,2.38-1.9,4.44-6.05,4.44-2.5,0-4.9-.94-6.12-2.28Z"/>
      <path class="cls-5" d="M981.44,415.57c0-4.87,3.72-8.52,8.74-8.52s8.74,3.62,8.74,8.52-3.74,8.52-8.74,8.52-8.74-3.65-8.74-8.52ZM997.66,415.57c0-4.25-3.22-7.39-7.49-7.39s-7.51,3.14-7.51,7.39,3.22,7.39,7.51,7.39,7.49-3.14,7.49-7.39Z"/>
      <path class="cls-5" d="M1004.38,408.27v7.18h8.95v1.1h-8.95v7.42h-1.22v-16.8h11.23v1.1h-10.01Z"/>
      <path class="cls-5" d="M1021.64,408.27h-6.05v-1.1h13.32v1.1h-6.05v15.7h-1.22v-15.7Z"/>
      <path class="cls-5" d="M1054.33,407.17l-5.69,16.8h-1.3l-5.21-15.07-5.23,15.07h-1.3l-5.71-16.8h1.3l5.11,15.12,5.26-15.12h1.18l5.23,15.15,5.16-15.15h1.2Z"/>
      <path class="cls-5" d="M1067.74,419.24h-9.75l-2.14,4.73h-1.32l7.73-16.8h1.22l7.73,16.8h-1.32l-2.16-4.73ZM1067.28,418.21l-4.42-9.7-4.39,9.7h8.81Z"/>
      <path class="cls-5" d="M1085.93,423.97l-4.01-5.62c-.53.07-1.06.12-1.63.12h-4.8v5.5h-1.22v-16.8h6.02c4.22,0,6.77,2.11,6.77,5.66,0,2.66-1.44,4.51-3.94,5.26l4.2,5.88h-1.39ZM1080.29,417.4c3.6,0,5.52-1.68,5.52-4.56s-1.92-4.56-5.52-4.56h-4.8v9.12h4.8Z"/>
      <path class="cls-5" d="M1103.14,422.87v1.1h-11.59v-16.8h11.23v1.1h-10.01v6.62h8.95v1.08h-8.95v6.89h10.37Z"/>
      <path class="cls-5" d="M965.03,458.87v1.1h-11.59v-16.8h11.23v1.1h-10.01v6.62h8.95v1.08h-8.95v6.89h10.37Z"/>
      <path class="cls-5" d="M983.18,443.17v16.8h-1.01l-11.45-14.59v14.59h-1.22v-16.8h1.03l11.42,14.59v-14.59h1.22Z"/>
      <path class="cls-5" d="M1001.03,451.64h1.18v6.29c-1.51,1.44-3.7,2.16-6,2.16-5.06,0-8.78-3.62-8.78-8.52s3.72-8.52,8.81-8.52c2.42,0,4.56.77,6.05,2.3l-.77.82c-1.46-1.44-3.22-1.99-5.26-1.99-4.37,0-7.61,3.17-7.61,7.39s3.24,7.39,7.61,7.39c1.78,0,3.41-.43,4.78-1.54v-5.78Z"/>
      <path class="cls-5" d="M1007.58,443.17h1.22v16.8h-1.22v-16.8Z"/>
      <path class="cls-5" d="M1028.34,443.17v16.8h-1.01l-11.45-14.59v14.59h-1.22v-16.8h1.03l11.42,14.59v-14.59h1.22Z"/>
      <path class="cls-5" d="M1045.79,458.87v1.1h-11.59v-16.8h11.23v1.1h-10.01v6.62h8.95v1.08h-8.95v6.89h10.37Z"/>
      <path class="cls-5" d="M1061.85,458.87v1.1h-11.59v-16.8h11.23v1.1h-10.01v6.62h8.95v1.08h-8.95v6.89h10.37Z"/>
      <path class="cls-5" d="M1077.98,459.97l-4.01-5.62c-.53.07-1.06.12-1.63.12h-4.8v5.5h-1.22v-16.8h6.02c4.22,0,6.77,2.11,6.77,5.66,0,2.66-1.44,4.51-3.94,5.26l4.2,5.88h-1.39ZM1072.34,453.4c3.6,0,5.52-1.68,5.52-4.56s-1.92-4.56-5.52-4.56h-4.8v9.12h4.8Z"/>
      <path class="cls-5" d="M1083.59,443.17h1.22v16.8h-1.22v-16.8Z"/>
      <path class="cls-5" d="M1104.35,443.17v16.8h-1.01l-11.45-14.59v14.59h-1.22v-16.8h1.03l11.42,14.59v-14.59h1.22Z"/>
      <path class="cls-5" d="M1122.21,451.64h1.18v6.29c-1.51,1.44-3.7,2.16-6,2.16-5.06,0-8.78-3.62-8.78-8.52s3.72-8.52,8.81-8.52c2.42,0,4.56.77,6.05,2.3l-.77.82c-1.46-1.44-3.22-1.99-5.26-1.99-4.37,0-7.61,3.17-7.61,7.39s3.24,7.39,7.61,7.39c1.78,0,3.41-.43,4.78-1.54v-5.78Z"/>
    </g>
    <g>
      <path class="cls-7" d="M1113.92,339.04c-.91-22.69.14-31.53-1.32-42.42-.71-5.31-9.85-3.18-14.75-1.02l-27.11,11.96,1.17,55.77c.18,8.84,7.34,15.95,16.18,16.07,10.5.13,17.54-.04,26.44-1.16-.02-3.82.17-19.83-.61-39.19Z"/>
      <path class="cls-15" d="M1011.58,361.26c4.25,9.2,10.62,20.18,25.84,20.18h33.63l-34.75-78.5c-15.55,5.85-29.3,12.43-40.66,19.43,3.81,7.71,12.4,31.23,15.94,38.89Z"/>
      <path class="cls-18" d="M1179.31,281.52l-4.48,6.49,11.38-6.82-6.9.32ZM1098.61,286.27c-40.88,6.8-29.45,19.05-52.52,32.88l19.68,47.14c-2.73-30.83,26.27-70.45,103.78-83.33,2.67-.44,5.33-.86,7.98-1.25-22.79-1.6-50.04-.24-78.93,4.56Z"/>
      <path class="cls-4" d="M1179.31,281.52"/>
      <path class="cls-4" d="M1186.21,281.19"/>
      <path class="cls-17" d="M912.59,355.13c2.41,14.49,21.61,24.06,54.21,27.2-3.7-4.02-6.07-8.46-6.88-13.31-3.76-22.59,29.99-47.86,78.25-66.04l-6.83-14.25c-70.22,13.15-122.76,42.2-118.75,66.39Z"/>
      <g>
        <path class="cls-7" d="M993.06,215.07l-33.73,76.53c-13.72,6.27-24.9,13.83-32.5,21.94,23.07-12.85,56.88-24.11,95.41-30.51,2-.33,3.95-.59,5.94-.89l-3.32-6.92-31.81-60.15Z"/>
        <path class="cls-7" d="M1162.72,275.26c-1.1.24-56.23-.29-68.54,4.62l-13.97,4.45c-6.33,2.18-28.27,16.97-26.83,15.62,4.56-4.28,16.96-18.64,21.95-20.49,6.34-2.36,33.88-8.37,33.88-8.37"/>
        <path class="cls-7" d="M1113.34,264.31"/>
        <path class="cls-7" d="M1143.86,268.82"/>
        <path class="cls-7" d="M1134.08,265.46"/>
        <polygon class="cls-7" points="1172.04 277.09 1179.31 281.52 1186.21 281.19 1172.04 277.09"/>
      </g>
    </g>
    <path class="cls-7" d="M1073.89,279.3c14.46,1.48,1.78.22,3.93,0l35.1-5.74-1.34-45.89c-10.47,7.7-25.65,5.88-40.83,6.84,0,23.94-3.74,44.09,3.14,44.8Z"/>
    <path class="cls-7" d="M1114.98,207.05c-4.22,15.03-5.96,20.54-20.36,22.36l-23.55,2.16,1.16-23.42c12.62-10.53,24.49-21.03,34.39-20.55,8.86-1.3,10.61,11.42,8.36,19.45Z"/>
    <path class="cls-21" d="M877.17,380.47"/>
    <path class="cls-9" d="M858.08,379.43"/>
    <path class="cls-1" d="M823.65,384.44"/>
    <text/>
    <circle class="cls-30" cx="1029.76" cy="299.82" r="240.94"/>
    <g>
      <path class="cls-5" d="M210.53,145.88c1.79,3.19,3.58,6.38,5.38,9.58-12.52,7.04-24.3,15.88-34.95,26.53-2.05-2.05-4.1-4.1-6.15-6.15.33-10.85,1.69-21.96,4.13-33.15-6.72,5.09-13.17,10.69-19.32,16.78-2.58-2.6-5.15-5.2-7.73-7.8,12.94-12.83,27.17-23.55,42.28-32.18,1.44,2.52,2.87,5.04,4.31,7.56-3.81,10.75-6.54,21.54-8.2,32.2,6.5-4.98,13.27-9.44,20.26-13.37Z"/>
      <path class="cls-5" d="M200.46,116.04c5.87-3.08,11.85-5.85,17.93-8.31,5.26,12.98,10.53,25.95,15.79,38.93-4.82,1.95-9.57,4.15-14.22,6.59-6.5-12.4-13-24.8-19.5-37.21Z"/>
      <path class="cls-5" d="M282.93,93.26c.81,13.98,1.61,27.95,2.42,41.93-4.21.24-8.41.65-12.59,1.22-6.6-5.52-13.84-10.64-21.69-15.24,1.54,6.17,3.08,12.34,4.62,18.51-4.87,1.21-9.7,2.65-14.47,4.33-4.65-13.21-9.3-26.42-13.95-39.62,5.07-1.78,10.2-3.35,15.37-4.72,8.72,4.28,16.85,9.12,24.35,14.42-.96-6.29-1.91-12.58-2.87-18.86,6.24-.94,12.52-1.6,18.81-1.96Z"/>
      <path class="cls-5" d="M348.47,100.17c-3.72,13.5-7.44,27-11.16,40.5-4.09-1.12-8.22-2.08-12.37-2.88-4.49-7.33-9.71-14.49-15.63-21.35-.52,6.34-1.04,12.68-1.56,19.02-4.98-.41-9.98-.58-14.97-.53-.16-14-.32-28-.48-42,5.31-.06,10.63.09,15.93.44,6.84,6.83,12.98,14.01,18.39,21.42,1.11-6.26,2.22-12.53,3.33-18.79,6.22,1.1,12.4,2.48,18.52,4.16Z"/>
      <path class="cls-5" d="M357.52,102.89c6.21,2.02,12.33,4.35,18.36,6.98-5.61,12.83-11.23,25.66-16.84,38.49-4.78-2.09-9.64-3.93-14.56-5.54,4.35-13.31,8.69-26.62,13.04-39.93Z"/>
      <path class="cls-5" d="M397.6,162.85c-5.01-3.9-10.2-7.48-15.52-10.73-2.21,1.51-4.39,3.05-6.52,4.63-4.64-2.71-9.38-5.16-14.22-7.37,11.97-9.93,25.42-18.71,40.17-26.03,5.58,3.47,11.03,7.24,16.33,11.3-1.53,16.48-4.77,32.36-9.6,47.33-4.04-4.04-8.25-7.82-12.59-11.35.7-2.58,1.35-5.17,1.96-7.79ZM399.93,151.82c.7-3.85,1.3-7.75,1.81-11.67-3.48,1.87-6.9,3.82-10.24,5.85,2.85,1.85,5.66,3.79,8.42,5.82Z"/>
    </g>
    <g>
      <path class="cls-5" d="M121.97,390.21c.4.08.79.16,1.19.24-.22,2.03.57,5.17,2.29,7.91,2.57,4.08,5,4.97,6.49,3.94,4.07-2.7-6.19-13.45-.71-16.65,2.08-1.18,5.06-.06,7.94,4.54,1.3,2.06,2.2,4.47,2.39,6.41-.38.02-.77.04-1.15.06-.24-2.07-1.08-4.19-2.15-5.89-2.3-3.66-4.57-4.62-6.17-3.68-4.45,2.68,5.78,13.23.87,16.59-1.93,1.35-5.2.36-8.41-4.71-1.92-3.05-2.88-6.55-2.58-8.75Z"/>
      <path class="cls-5" d="M138.3,404.18c3.99-2.81,9.71-.98,13.7,3.94,3.97,4.9,4.51,10.79.94,14.16-3.56,3.36-9.73,2.08-14.14-3.36-4.43-5.47-4.48-11.95-.51-14.74ZM151.84,421.07c3.13-2.89,2.71-8-.71-12.23-3.44-4.25-8.41-5.8-11.86-3.32-3.44,2.48-3.35,8.03.41,12.68,3.75,4.63,9.04,5.74,12.16,2.86Z"/>
      <path class="cls-5" d="M163.05,422.31c-1.7,1.69-3.39,3.38-5.09,5.07,2.73,2.76,5.53,5.43,8.39,7.99-.24.28-.49.55-.73.83-2.88-2.57-5.69-5.25-8.44-8.03-1.75,1.75-3.51,3.49-5.26,5.24-.39-.39-.78-.79-1.17-1.19,4-3.92,8.01-7.85,12.01-11.77,3.25,3.35,6.61,6.55,10.06,9.59-.24.28-.49.55-.73.83-3.09-2.73-6.11-5.58-9.05-8.56Z"/>
      <path class="cls-5" d="M178.93,436.6c-1.93-1.54-3.84-3.13-5.72-4.76.24-.28.48-.56.72-.84,4.12,3.57,8.36,6.92,12.73,10.06-.22.3-.43.6-.64.9-1.99-1.43-3.96-2.91-5.9-4.43-3.22,4.13-6.45,8.26-9.67,12.39-.43-.33-.85-.67-1.28-1.01,3.26-4.1,6.52-8.21,9.77-12.31Z"/>
      <path class="cls-5" d="M212.78,456.66c-4.5,4.05-9.16,7.97-13.99,11.74-.5-.27-.99-.53-1.48-.8.43-5.5,1.03-10.94,1.8-16.34-4.38,3.25-8.9,6.39-13.54,9.39-.48-.31-.95-.61-1.43-.92.97-6.06,2.14-12.06,3.5-17.97.43.3.85.6,1.28.9-1.19,5.32-2.23,10.71-3.11,16.15,4.66-3,9.19-6.14,13.58-9.39.4.24.81.48,1.21.72-.76,5.41-1.36,10.88-1.79,16.39,4.37-3.39,8.6-6.89,12.69-10.5.43.21.85.42,1.28.63Z"/>
      <path class="cls-5" d="M222.98,474.25c-3.82-1.46-7.6-3.04-11.33-4.75-1.48,1.06-2.98,2.1-4.49,3.13-.52-.24-1.03-.49-1.54-.74,5.47-3.58,10.72-7.36,15.73-11.33.44.19.89.38,1.34.56.65,6.34,1.58,12.71,2.8,19.1-.53-.19-1.07-.38-1.6-.58-.32-1.8-.62-3.6-.9-5.39ZM222.82,473.08c-.54-3.68-.99-7.35-1.35-11.01-2.87,2.3-5.82,4.55-8.84,6.73,3.36,1.52,6.76,2.95,10.19,4.27Z"/>
      <path class="cls-5" d="M243.56,485.71c-1.19-2.23-2.34-4.48-3.43-6.73-.65-.11-1.3-.24-1.99-.45-1.92-.56-3.83-1.15-5.73-1.77-.58,1.74-1.15,3.48-1.73,5.22-.5-.16-1-.33-1.49-.49,1.8-5.31,3.6-10.62,5.4-15.92,2.24.75,4.5,1.46,6.77,2.12,4.75,1.38,7.15,4.1,6.31,7.56-.64,2.58-2.81,3.97-6.02,3.87,1.16,2.35,2.37,4.69,3.65,7.02-.58-.14-1.16-.28-1.73-.43ZM238.45,477.5c4.31,1.25,7.04.17,7.75-2.61.72-2.82-1.08-4.95-5.15-6.14-1.82-.53-3.63-1.09-5.43-1.68-.96,2.89-1.91,5.78-2.87,8.67,1.89.62,3.79,1.2,5.7,1.76Z"/>
      <path class="cls-5" d="M265.32,488.85c-.05.36-.1.73-.16,1.09-4.89-.68-9.76-1.55-14.6-2.59,1.2-5.47,2.4-10.95,3.6-16.42,4.29.93,8.61,1.7,12.96,2.31-.05.36-.11.73-.16,1.09-3.89-.55-7.77-1.23-11.62-2.03-.46,2.16-.91,4.32-1.37,6.48,3.57.74,7.16,1.38,10.76,1.92-.05.36-.11.71-.16,1.07-3.62-.54-7.23-1.18-10.83-1.93-.47,2.25-.95,4.5-1.42,6.74,4.31.89,8.65,1.65,13,2.25Z"/>
      <path class="cls-5" d="M293.47,490.8c0,.37,0,.74,0,1.1-4.93,0-9.87-.17-14.79-.53.41-5.59.82-11.17,1.23-16.76,4.37.32,8.75.48,13.13.48,0,.37,0,.74,0,1.1-3.93,0-7.85-.14-11.77-.39-.15,2.2-.29,4.41-.44,6.61,3.63.23,7.27.37,10.91.4,0,.36,0,.72,0,1.08-3.66-.03-7.32-.16-10.97-.4-.15,2.29-.3,4.58-.45,6.87,4.38.28,8.77.42,13.16.42Z"/>
      <path class="cls-5" d="M314.63,473.88c.65,5.56,1.31,11.13,1.96,16.69-.43.05-.85.1-1.28.14-5.39-4.31-10.43-8.83-15.13-13.53.18,4.86.36,9.72.54,14.58-.52.02-1.04.04-1.56.05-.16-5.6-.33-11.2-.49-16.79.4-.01.8-.02,1.21-.04,4.63,4.7,9.6,9.24,14.92,13.56-.53-4.84-1.06-9.67-1.59-14.51.47-.05.95-.1,1.42-.16Z"/>
      <path class="cls-5" d="M337.18,478.57c.47-.11.94-.22,1.41-.33.5,2.04.99,4.08,1.49,6.11-1.52,1.85-4.1,3.17-7,3.75-6.41,1.28-11.65-1.7-12.31-6.54-.66-4.86,3.14-9.01,8.94-10.17,2.78-.56,5.39-.36,7.47.72-.23.34-.46.67-.7,1-2.03-1-4.16-1.09-6.52-.62-5.02,1-8.32,4.67-7.71,8.85.6,4.15,5.17,6.74,10.66,5.64,2.22-.44,4.17-1.31,5.6-2.78-.44-1.88-.89-3.76-1.33-5.63Z"/>
      <path class="cls-5" d="M342.69,468.43c.46-.13.92-.26,1.39-.39,1.56,5.38,3.11,10.77,4.67,16.15-.5.14-1.01.28-1.51.42-1.51-5.4-3.03-10.79-4.54-16.19Z"/>
      <path class="cls-5" d="M365.78,460.36c2.22,5.15,4.44,10.3,6.67,15.44-.4.17-.8.34-1.2.51-6.45-2.58-12.62-5.47-18.5-8.64,1.56,4.61,3.13,9.22,4.69,13.83-.5.17-1,.33-1.49.49-1.76-5.32-3.52-10.64-5.28-15.97.39-.13.77-.25,1.15-.38,5.81,3.19,11.92,6.12,18.31,8.73-1.89-4.49-3.79-8.97-5.68-13.46.45-.19.89-.37,1.33-.56Z"/>
      <path class="cls-5" d="M392.17,464.76c.18.32.37.64.55.96-4.38,2.5-8.84,4.83-13.36,6.97-2.42-5.06-4.83-10.12-7.25-15.18,4.02-1.9,7.97-3.96,11.86-6.17.18.32.37.64.55.96-3.49,1.98-7.03,3.84-10.62,5.57.97,1.99,1.94,3.98,2.91,5.96,3.33-1.61,6.61-3.32,9.85-5.13.18.31.35.63.53.94-3.26,1.82-6.57,3.54-9.91,5.16,1.01,2.07,2.01,4.13,3.02,6.2,4.01-1.94,7.97-4.02,11.87-6.25Z"/>
      <path class="cls-5" d="M409.78,453.4c.22.3.43.6.65.9-4.14,3-8.37,5.82-12.68,8.46-2.93-4.78-5.86-9.56-8.8-14.35,3.83-2.34,7.59-4.84,11.26-7.49.22.3.43.6.65.9-3.29,2.38-6.65,4.63-10.07,6.76,1.17,1.88,2.34,3.75,3.51,5.63,3.17-1.97,6.29-4.05,9.35-6.23.21.29.42.59.63.88-3.08,2.19-6.22,4.28-9.41,6.26,1.22,1.95,2.44,3.9,3.65,5.85,3.82-2.38,7.58-4.91,11.26-7.57Z"/>
      <path class="cls-5" d="M427.1,440.73c-2.59-.18-5.15-.42-7.69-.71-.47.5-.97.99-1.54,1.47-1.59,1.34-3.2,2.65-4.83,3.93,1.13,1.44,2.26,2.89,3.39,4.33-.43.34-.85.67-1.28,1-3.42-4.44-6.84-8.89-10.26-13.33,1.93-1.49,3.84-3.03,5.72-4.61,3.94-3.32,7.65-3.93,10.07-1.32,1.81,1.96,1.7,4.6-.26,7.31,2.66.28,5.35.51,8.06.67-.46.43-.92.85-1.38,1.27ZM417.18,440.66c3.57-3.01,4.27-5.98,2.34-8.1-1.96-2.16-4.81-1.76-8.19,1.09-1.51,1.27-3.03,2.51-4.57,3.72,1.88,2.4,3.75,4.8,5.63,7.19,1.62-1.27,3.22-2.57,4.8-3.9Z"/>
      <path class="cls-5" d="M420.88,423.47c.36-.36.72-.71,1.08-1.07,3.94,3.98,7.89,7.97,11.83,11.95-.39.39-.79.78-1.18,1.17-3.91-4.02-7.82-8.03-11.73-12.05Z"/>
      <path class="cls-5" d="M438.18,403.83c4.44,3.41,8.88,6.83,13.33,10.24-.29.38-.57.75-.86,1.12-7.1,1.24-14.1,1.99-20.95,2.29,3.59,3.29,7.18,6.58,10.77,9.87-.38.41-.75.83-1.13,1.24-4.1-3.82-8.2-7.65-12.3-11.47.29-.32.58-.64.88-.96,6.8-.25,13.76-.93,20.82-2.1-3.83-3-7.67-6-11.5-9,.32-.41.64-.83.96-1.25Z"/>
      <path class="cls-5" d="M458.45,388.67c.28-.47.55-.95.82-1.42,1.82,1.04,3.64,2.08,5.46,3.12.17,2.61-.83,5.73-2.6,8.55-3.91,6.23-9.96,8.33-13.89,5.43-3.95-2.92-4.04-8.91-.51-14.55,1.7-2.71,3.79-4.76,6.12-5.75.06.44.13.87.19,1.31-2.24,1-3.9,2.72-5.34,5.02-3.06,4.88-2.94,10.14.49,12.62,3.4,2.46,8.67.6,12.02-4.74,1.35-2.16,2.2-4.41,2.23-6.67-1.67-.97-3.33-1.94-5-2.91Z"/>
    </g>
    <g>
      <path class="cls-7" d="M377.64,332.52c-.91-22.69.14-31.53-1.32-42.42-.71-5.31-9.85-3.18-14.75-1.02l-27.11,11.96,1.17,55.77c.18,8.84,7.34,15.95,16.18,16.07,10.5.13,17.54-.04,26.44-1.16-.02-3.82.17-19.83-.61-39.19Z"/>
      <path class="cls-11" d="M275.3,354.74c4.25,9.2,10.62,20.18,25.84,20.18h33.63l-34.75-78.5c-15.55,5.85-29.3,12.43-40.66,19.43,3.81,7.71,12.4,31.23,15.94,38.89Z"/>
      <path class="cls-13" d="M443.03,274.99l-4.48,6.49,11.38-6.82-6.9.32ZM362.33,279.75c-40.88,6.8-29.45,19.05-52.52,32.88l19.68,47.14c-2.73-30.83,26.27-70.45,103.78-83.33,2.67-.44,5.33-.86,7.98-1.25-22.79-1.6-50.04-.24-78.93,4.56Z"/>
      <path class="cls-4" d="M443.03,274.99"/>
      <path class="cls-4" d="M449.93,274.67"/>
      <path class="cls-8" d="M176.31,348.61c2.41,14.49,21.61,24.06,54.21,27.2-3.7-4.02-6.07-8.46-6.88-13.31-3.76-22.59,29.99-47.86,78.25-66.04l-6.83-14.25c-70.22,13.15-122.76,42.2-118.75,66.39Z"/>
      <g>
        <path class="cls-7" d="M256.77,208.55l-33.73,76.53c-13.72,6.27-24.9,13.83-32.5,21.94,23.07-12.85,56.88-24.11,95.41-30.51,2-.33,3.95-.59,5.94-.89l-3.32-6.92-31.81-60.15Z"/>
        <path class="cls-7" d="M426.44,268.73c-1.1.24-56.23-.29-68.54,4.62l-13.97,4.45c-6.33,2.18-28.27,16.97-26.83,15.62,4.56-4.28,16.96-18.64,21.95-20.49,6.34-2.36,33.88-8.37,33.88-8.37"/>
        <path class="cls-7" d="M377.06,257.79"/>
        <path class="cls-7" d="M407.58,262.3"/>
        <path class="cls-7" d="M397.8,258.94"/>
        <polygon class="cls-7" points="435.76 270.56 443.03 274.99 449.93 274.67 435.76 270.56"/>
      </g>
    </g>
    <path class="cls-7" d="M337.61,272.78c14.46,1.48,1.78.22,3.93,0l35.1-5.74-1.34-45.89c-10.47,7.7-25.65,5.88-40.83,6.84,0,23.94-3.74,44.09,3.14,44.8Z"/>
    <path class="cls-7" d="M378.7,200.53c-4.22,15.03-5.96,20.54-20.36,22.36l-23.55,2.16,1.16-23.42c12.62-10.53,24.49-21.03,34.39-20.55,8.86-1.3,10.61,11.42,8.36,19.45Z"/>
    <path class="cls-12" d="M140.89,373.95"/>
    <path class="cls-2" d="M121.8,372.91"/>
    <path class="cls-19" d="M87.37,377.92"/>
    <text/>
    <circle class="cls-30" cx="293.48" cy="293.29" r="212.6"/>
  </g>
</svg>