<?xml version="1.0" encoding="utf-8"?>
<!-- Generator: Adobe Illustrator 28.3.0, SVG Export Plug-In . SVG Version: 6.00 Build 0)  -->
<svg version="1.1" xmlns="http://www.w3.org/2000/svg" xmlns:xlink="http://www.w3.org/1999/xlink" x="0px" y="0px"
	 viewBox="0 0 595.28 595.28" style="enable-background:new 0 0 595.28 595.28;" xml:space="preserve">
<style type="text/css">
	.st0{fill:#FAA61A;}
	.st1{fill:url(#SVGID_1_);}
	.st2{fill:url(#SVGID_00000034768309347272655940000009109503717052563091_);}
	.st3{fill:#FFC20E;}
	.st4{fill:url(#SVGID_00000157278228669717933210000000202584916091365521_);}
	.st5{fill:#00729A;}
	.st6{opacity:0.25;}
	.st7{fill:#065C7B;}
	.st8{opacity:0.35;}
	.st9{fill:url(#SVGID_00000176018847862395586520000005019260338952422314_);}
	.st10{fill:url(#SVGID_00000061470990493591480220000003223845890755277964_);}
	.st11{fill:url(#SVGID_00000078029943331724905080000013767758517198344122_);}
	.st12{fill:#737579;}
	.st13{fill:none;}
	.st14{fill:#313A44;}
	.st15{font-family:'Montserrat-SemiBold';}
	.st16{font-size:70px;}
	.st17{fill:#D15055;}
	.st18{font-family:'Montserrat-Light';}
	.st19{font-size:36px;}
	.st20{fill:#444C55;}
	.st21{fill:#D15055;stroke:#D15055;stroke-miterlimit:10;}
	.st22{fill:#5E6670;}
	.st23{fill:#E77164;}
	.st24{fill:#4E5965;}
	.st25{fill:#9ACA3C;}
	.st26{fill:url(#SVGID_00000124874728034975098780000013796161942321692590_);}
	.st27{fill:url(#SVGID_00000124138577739026500710000001425718180881962157_);}
	.st28{fill:#BFD730;}
	.st29{fill:url(#SVGID_00000018212322312418942490000012977443338636107693_);}
</style>
<g id="Background">
</g>
<g id="Logo">
</g>
<g id="Text">
	<polygon class="st0" points="1678.46,254.91 1720.81,230.46 1720.81,175.16 1678.46,150.71 	"/>
	<linearGradient id="SVGID_1_" gradientUnits="userSpaceOnUse" x1="1699.6372" y1="239.2509" x2="1699.6372" y2="164.5635">
		<stop  offset="0" style="stop-color:#FCB240"/>
		<stop  offset="1" style="stop-color:#FAA61A"/>
	</linearGradient>
	<polygon class="st1" points="1682.33,248.21 1682.33,157.42 1716.94,177.4 1716.94,228.23 1682.33,248.21 	"/>
	<polygon class="st0" points="1877.89,139.77 1787.65,87.67 1787.65,136.57 1835.54,164.22 	"/>
	
		<linearGradient id="SVGID_00000055696911687791356890000011173102221415733408_" gradientUnits="userSpaceOnUse" x1="1854.455" y1="153.2443" x2="1787.8284" y2="107.5729">
		<stop  offset="0" style="stop-color:#FCB240"/>
		<stop  offset="1" style="stop-color:#FAA61A"/>
	</linearGradient>
	<polygon style="fill:url(#SVGID_00000055696911687791356890000011173102221415733408_);" points="1835.54,159.75 1791.52,134.33 
		1791.52,94.37 1870.15,139.77 1835.54,159.75 	"/>
	<polygon class="st3" points="1678.46,150.71 1720.81,175.16 1787.65,136.57 1787.65,87.67 	"/>
	
		<linearGradient id="SVGID_00000006683759564716025780000011996026552630650815_" gradientUnits="userSpaceOnUse" x1="1704.3461" y1="163.3814" x2="1781.7189" y2="110.7249">
		<stop  offset="0" style="stop-color:#FFCC4E"/>
		<stop  offset="1" style="stop-color:#FFC20E"/>
	</linearGradient>
	<polygon style="fill:url(#SVGID_00000006683759564716025780000011996026552630650815_);" points="1720.81,170.7 1686.2,150.71 
		1783.78,94.37 1783.78,134.33 1720.81,170.7 	"/>
	<polygon class="st5" points="1721.97,251.31 1678.2,276.58 1787.65,339.84 1787.65,213.39 	"/>
	<polygon class="st6" points="1721.97,251.31 1786.89,288.79 1787.65,288.35 1787.65,213.39 	"/>
	<polygon class="st7" points="1852.83,250.62 1806.47,202.52 1806.64,277.39 1806.75,328.81 1896.85,276.8 1896.85,276.06 	"/>
	<polygon class="st8" points="1852.83,250.62 1806.47,202.52 1806.64,277.39 1806.75,328.81 1896.85,276.8 1896.85,276.06 	"/>
	<polygon class="st7" points="1852.83,175.76 1806.47,202.52 1852.83,250.62 1896.85,276.06 1896.85,150.34 	"/>
	<polygon class="st8" points="1852.83,250.62 1806.47,202.52 1806.64,277.39 1852.83,250.72 	"/>
	<polygon class="st6" points="1852.83,250.62 1852.83,175.76 1806.47,202.52 	"/>
	<rect x="1867.17" y="460.92" class="st7" width="13.4" height="13.4"/>
	<rect x="1692.76" y="460.92" class="st7" width="13.41" height="13.4"/>
	<g>
		<polygon class="st0" points="833.82,355.2 860.96,339.53 860.96,304.08 833.82,288.4 		"/>
		
			<linearGradient id="SVGID_00000057849293780739833310000009699323624657497745_" gradientUnits="userSpaceOnUse" x1="847.3895" y1="345.1565" x2="847.3895" y2="297.2809">
			<stop  offset="0" style="stop-color:#FCB240"/>
			<stop  offset="1" style="stop-color:#FAA61A"/>
		</linearGradient>
		<polygon style="fill:url(#SVGID_00000057849293780739833310000009699323624657497745_);" points="836.3,350.9 836.3,292.7 
			858.48,305.51 858.48,338.09 836.3,350.9 		"/>
		<polygon class="st0" points="961.65,281.39 903.81,247.99 903.81,279.33 934.51,297.06 		"/>
		
			<linearGradient id="SVGID_00000102538719519556363820000002834704629258788508_" gradientUnits="userSpaceOnUse" x1="946.6337" y1="290.0247" x2="903.9243" y2="260.748">
			<stop  offset="0" style="stop-color:#FCB240"/>
			<stop  offset="1" style="stop-color:#FAA61A"/>
		</linearGradient>
		<polygon style="fill:url(#SVGID_00000102538719519556363820000002834704629258788508_);" points="934.51,294.2 906.29,277.9 
			906.29,252.29 956.7,281.39 934.51,294.2 		"/>
		<polygon class="st3" points="833.82,288.4 860.96,304.08 903.81,279.33 903.81,247.99 		"/>
		
			<linearGradient id="SVGID_00000027587499884820830950000002532046385638534840_" gradientUnits="userSpaceOnUse" x1="850.4089" y1="296.5222" x2="900.0064" y2="262.7683">
			<stop  offset="0" style="stop-color:#FFCC4E"/>
			<stop  offset="1" style="stop-color:#FFC20E"/>
		</linearGradient>
		<polygon style="fill:url(#SVGID_00000027587499884820830950000002532046385638534840_);" points="860.96,301.21 838.78,288.4 
			901.33,252.29 901.33,277.9 860.96,301.21 		"/>
		<polygon class="st5" points="861.71,352.89 833.65,369.08 903.81,409.64 903.81,328.58 		"/>
		<polygon class="st6" points="861.71,352.89 903.32,376.91 903.81,376.63 903.81,328.58 		"/>
		<polygon class="st7" points="945.59,352.45 915.88,321.61 915.98,369.61 916.05,402.57 973.81,369.23 973.81,368.76 		"/>
		<polygon class="st8" points="945.59,352.45 915.88,321.61 915.98,369.61 916.05,402.57 973.81,369.23 973.81,368.76 		"/>
		<polygon class="st7" points="945.59,304.46 915.88,321.61 945.59,352.45 973.81,368.76 973.81,288.16 		"/>
		<polygon class="st8" points="945.59,352.45 915.88,321.61 915.98,369.61 945.59,352.51 		"/>
		<polygon class="st6" points="945.59,352.45 945.59,304.46 915.88,321.61 		"/>
	</g>
	<rect x="1142.54" y="358.37" class="st7" width="10.64" height="10.64"/>
	<rect x="1004.06" y="358.37" class="st7" width="10.64" height="10.64"/>
	<rect x="405.61" y="471.04" class="st12" width="13.4" height="13.4"/>
	<rect x="171.19" y="471.04" class="st12" width="13.41" height="13.4"/>
	<rect x="2617.62" y="352.28" class="st12" width="10.4" height="10.4"/>
	<rect x="2482.3" y="352.28" class="st12" width="10.4" height="10.4"/>
	<rect x="92.72" y="375.65" class="st13" width="394.48" height="70.5"/>
	<text transform="matrix(1 0 0 1 139.9561 427.5856)"><tspan x="0" y="0" class="st14 st15 st16">Zinnia</tspan><tspan x="225.26" y="0" class="st17 st15 st16">AI</tspan></text>
	<polygon class="st13" points="406.29,493.08 192.02,491.92 192.02,462.7 406.29,463.85 	"/>
	
		<text id="SOFTWARE_00000167374008500044607600000015290730587652853679_" transform="matrix(1 0 0 1 192.0198 491.2454)" class="st14 st18 st19">SOFTWARE</text>
	<rect x="1627.7" y="376.07" class="st13" width="394.48" height="70.5"/>
	<text transform="matrix(1 0 0 1 1627.6996 428.0067)"><tspan x="0" y="0" class="st7 st15 st16">You</tspan><tspan x="139.09" y="0" class="st0 st15 st16">Logo</tspan></text>
	<rect x="1721.07" y="453.22" class="st13" width="143.16" height="29.22"/>
	
		<text id="SOFTWARE_00000020358102292741237500000017123038165958238611_" transform="matrix(1 0 0 1 1721.0726 479.1893)" class="st7 st18" style="font-size:35px;">STUDIO</text>
	<rect x="992.07" y="299.65" class="st13" width="259.26" height="57.35"/>
	<text transform="matrix(1 0 0 1 992.0727 340.4584)"><tspan x="0" y="0" class="st7 st15" style="font-size:55px;">You</tspan><tspan x="109.28" y="0" class="st0 st15" style="font-size:55px;">Logo</tspan></text>
	<rect x="1025.58" y="351.08" class="st13" width="143.16" height="29.22"/>
	<text id="SOFTWARE" transform="matrix(1 0 0 1 1025.5786 371.8542)" class="st7 st18" style="font-size:28px;">STUDIO</text>
	<rect x="2469.03" y="295.14" class="st13" width="259.26" height="57.35"/>
	<text transform="matrix(1 0 0 1 2469.0254 335.9477)"><tspan x="0" y="0" class="st14 st15" style="font-size:55px;">You</tspan><tspan x="109.28" y="0" class="st25 st15" style="font-size:55px;">Logo</tspan></text>
	<rect x="2502.53" y="346.57" class="st13" width="143.16" height="29.22"/>
	<text transform="matrix(1 0 0 1 2502.5312 367.3436)" class="st14 st18" style="font-size:28px;">STUDIO</text>
	<g>
		<polygon class="st20" points="179.58,264.89 222.39,240.18 222.39,184.27 179.58,159.56 		"/>
		<polygon class="st17" points="183.49,258.12 183.49,166.33 218.48,186.53 218.48,237.92 183.49,258.12 		"/>
		<polygon class="st20" points="381.18,148.5 289.96,95.83 289.96,145.26 338.38,173.21 		"/>
		<polygon class="st21" points="338.38,168.7 293.87,143 293.87,102.6 373.36,148.5 338.38,168.7 		"/>
		<polygon class="st22" points="179.58,159.56 222.39,184.27 289.96,145.26 289.96,95.83 		"/>
		<polygon class="st23" points="222.39,179.76 187.4,159.56 286.05,102.6 286.05,143 222.39,179.76 		"/>
		<polygon class="st24" points="223.56,261.25 179.32,286.79 289.96,350.75 289.96,222.91 		"/>
		<polygon class="st6" points="223.56,261.25 289.19,299.14 289.96,298.7 289.96,222.91 		"/>
		<polygon class="st14" points="355.85,260.56 308.99,211.93 309.16,287.61 309.27,339.6 400.35,287.02 400.35,286.27 		"/>
		<polygon class="st8" points="355.85,260.56 308.99,211.93 309.16,287.61 309.27,339.6 400.35,287.02 400.35,286.27 		"/>
		<polygon class="st14" points="355.85,184.87 308.99,211.93 355.85,260.56 400.35,286.27 400.35,159.18 		"/>
		<polygon class="st8" points="355.85,260.56 308.99,211.93 309.16,287.61 355.85,260.66 		"/>
		<polygon class="st6" points="355.85,260.56 355.85,184.87 308.99,211.93 		"/>
	</g>
	<g>
		<polygon class="st25" points="2309.18,346.1 2335.31,331.01 2335.31,296.89 2309.18,281.81 		"/>
		
			<linearGradient id="SVGID_00000157302046004185548860000007064885234375230901_" gradientUnits="userSpaceOnUse" x1="2322.2427" y1="336.4357" x2="2322.2427" y2="290.3553">
			<stop  offset="0" style="stop-color:#A8D056"/>
			<stop  offset="1" style="stop-color:#9ACA3C"/>
		</linearGradient>
		<polygon style="fill:url(#SVGID_00000157302046004185548860000007064885234375230901_);" points="2311.57,341.96 2311.57,285.95 
			2332.92,298.27 2332.92,329.64 2311.57,341.96 		"/>
		<polygon class="st25" points="2432.22,275.06 2376.55,242.91 2376.55,273.08 2406.1,290.14 		"/>
		
			<linearGradient id="SVGID_00000037682603008123311700000013056889237920387505_" gradientUnits="userSpaceOnUse" x1="2417.7656" y1="283.3715" x2="2376.6587" y2="255.1933">
			<stop  offset="0" style="stop-color:#A8D056"/>
			<stop  offset="1" style="stop-color:#9ACA3C"/>
		</linearGradient>
		<polygon style="fill:url(#SVGID_00000037682603008123311700000013056889237920387505_);" points="2406.1,287.39 2378.94,271.7 
			2378.94,247.05 2427.45,275.06 2406.1,287.39 		"/>
		<polygon class="st28" points="2309.18,281.81 2335.31,296.89 2376.55,273.08 2376.55,242.91 		"/>
		
			<linearGradient id="SVGID_00000096028880564280793300000015226895450800281533_" gradientUnits="userSpaceOnUse" x1="2325.1484" y1="289.6264" x2="2372.8872" y2="257.1375">
			<stop  offset="0" style="stop-color:#CBDD5C"/>
			<stop  offset="1" style="stop-color:#BFD730"/>
		</linearGradient>
		<polygon style="fill:url(#SVGID_00000096028880564280793300000015226895450800281533_);" points="2335.31,294.14 2313.95,281.81 
			2374.16,247.05 2374.16,271.7 2335.31,294.14 		"/>
		<polygon class="st24" points="2336.02,343.87 2309.02,359.47 2376.55,398.5 2376.55,320.48 		"/>
		<polygon class="st6" points="2336.02,343.87 2376.08,367 2376.55,366.73 2376.55,320.48 		"/>
		<polygon class="st14" points="2416.76,343.45 2388.16,313.77 2388.26,359.97 2388.33,391.69 2443.92,359.6 2443.92,359.15 		"/>
		<polygon class="st8" points="2416.76,343.45 2388.16,313.77 2388.26,359.97 2388.33,391.69 2443.92,359.6 2443.92,359.15 		"/>
		<polygon class="st14" points="2416.76,297.26 2388.16,313.77 2416.76,343.45 2443.92,359.15 2443.92,281.58 		"/>
		<polygon class="st8" points="2416.76,343.45 2388.16,313.77 2388.26,359.97 2416.76,343.51 		"/>
		<polygon class="st6" points="2416.76,343.45 2416.76,297.26 2388.16,313.77 		"/>
	</g>
	<polygon class="st13" points="160.92,475.64 178.9,475.64 177.9,477.74 160.92,477.74 	"/>
</g>
</svg>
